<svg xmlns="http://www.w3.org/2000/svg" width="56" height="24" viewBox="0 0 56 24" fill="white"><polyline points="12.00,12.00 12.51,12.33 13.04,12.57 13.59,12.73 14.15,12.82 14.73,12.85 15.33,12.81 15.94,12.73 16.56,12.59 17.19,12.42 17.82,12.22 18.47,11.99 19.12,11.75 19.78,11.50 20.45,11.24 21.11,10.98 21.78,10.74 22.44,10.51 23.11,10.31 23.77,10.14 24.43,10.01 25.08,9.92 25.73,9.89 26.37,9.91 27.00,10.00 27.75,10.03 28.52,10.10 29.29,10.21 30.06,10.36 30.84,10.53 31.62,10.73 32.41,10.95 33.19,11.19 33.96,11.42 34.73,11.66 35.50,11.90 36.25,12.12 36.99,12.33 37.73,12.52 38.45,12.69 39.15,12.81 39.83,12.91 40.50,12.95 41.15,12.95 41.77,12.89 42.37,12.78 42.94,12.59 43.48,12.33 44.00,12.00" fill="none" stroke="white" stroke-width="1.3" stroke-linecap="round" stroke-linejoin="round"/></svg>
